<svg width="33" height="33" viewBox="0 0 33 33" fill="none" xmlns="http://www.w3.org/2000/svg">
<g clip-path="url(#clip0_2_25)">
<rect y="0.954391" width="150" height="148" fill="#32A2EF"/>
<path d="M14.6263 28.1325C13.8984 27.8925 13.2078 27.2129 12.7189 26.2555C12.6417 26.1135 12.573 25.967 12.5132 25.8168C12.5132 25.7605 12.854 25.5727 12.8698 25.6205C12.8773 25.6429 12.9737 25.806 13.084 25.9828C13.912 27.3095 15.0455 27.455 15.5832 26.3042C15.7338 25.9813 15.8057 25.6836 15.8923 25.0244C16.0161 24.0804 16.2074 22.9241 16.2931 22.6009C16.5332 21.6947 17.0476 20.9796 18.335 19.7608C19.4555 18.7001 19.9956 17.8751 20.0588 17.1272C20.0755 17.0365 20.0743 16.9433 20.0552 16.8531C19.9589 16.9162 19.8686 16.9879 19.7853 17.0675C19.6514 17.1855 19.3388 17.4342 19.0905 17.6204C18.4544 18.097 18.1791 18.3429 17.991 18.6018C17.9377 18.6848 17.8739 18.7605 17.8012 18.8271C17.7259 18.6779 17.6652 18.5218 17.6198 18.3609C17.5259 18.1312 17.4731 17.8867 17.4638 17.6387C17.4625 17.3363 17.5163 17.216 17.8232 16.8343C18.2075 16.3788 18.4212 15.8034 18.4276 15.2072C18.4276 14.59 18.1574 14.0524 17.3666 13.1007C17.0143 12.6767 15.9945 11.5875 15.9488 11.5875C15.9251 11.7664 15.9192 11.9472 15.9311 12.1272C15.9522 13.3596 15.716 14.3002 15.0455 15.6529C14.769 16.162 14.5383 16.6948 14.3561 17.2448C14.195 17.6905 14.1068 18.1593 14.0948 18.6331L14.0732 19.115L13.9148 19.2707C13.8275 19.3564 13.7469 19.4169 13.7351 19.4055C13.6843 19.3546 13.6394 18.619 13.6583 18.1512C13.6934 17.2901 13.8965 16.5192 14.395 15.3541C15.3387 13.1489 15.5834 12.3299 15.5327 11.5475C15.5118 11.2235 15.4826 11.1222 15.1593 10.2533C15.0218 9.90494 14.9708 9.52827 15.0109 9.15578C15.051 8.78329 15.1809 8.42614 15.3895 8.1151C15.4979 7.94416 15.511 7.90131 15.4785 7.82263C15.4576 7.77192 15.374 7.57956 15.2926 7.39521C15.0646 6.93181 14.9569 6.41837 14.9793 5.90227C14.9775 5.31585 15.0213 5.06902 15.1938 4.69182C15.3436 4.36467 15.7598 3.98322 15.9682 3.98322C16.1152 3.98322 16.0935 4.0457 15.8913 4.19848C15.4614 4.5235 15.3076 5.08767 15.4547 5.80036C15.6072 6.54021 15.911 7.06364 16.9173 8.32137C19.295 11.2907 20.4908 13.033 21.4281 14.8925C22.0244 16.0749 22.265 16.6933 22.5126 17.6804C22.7548 18.5647 22.8436 19.4841 22.7751 20.3985C22.6152 22.2675 21.8671 23.5719 20.5825 24.22C19.6174 24.6712 18.5181 24.7424 17.503 24.4194C17.1273 24.3031 17.1386 24.3291 17.2263 23.8056C17.3134 23.2861 17.3761 23.0834 17.447 23.0913C17.4746 23.0944 17.6533 23.1252 17.8441 23.1595C18.6942 23.3108 19.5698 23.1297 20.2904 22.6534C20.5974 22.4205 20.8752 22.1514 21.1178 21.8519C21.4807 21.3609 21.7408 20.8016 21.8824 20.2075C22.0066 19.5822 22.0366 18.9419 21.9714 18.3077C21.8708 17.777 21.7154 17.2582 21.5077 16.7597C20.7488 14.9057 19.4279 12.9186 16.5707 9.33782C16.4423 9.17686 16.2057 8.86852 16.0452 8.65228C15.9494 8.51315 15.8428 8.38188 15.7263 8.2597C15.6773 8.2597 15.512 8.54219 15.4498 8.73259C15.4037 8.88497 15.3884 9.04501 15.4048 9.20336C15.4365 9.75035 15.6662 10.0917 16.8196 11.3023C17.358 11.8398 17.8443 12.4273 18.2719 13.0568C18.924 14.0517 19.1596 15.0469 18.9376 15.8715C18.9189 15.9239 18.9108 15.9795 18.9139 16.035C18.9629 16.0841 19.6664 15.4462 19.8776 15.1593C19.9495 15.0619 20.0215 14.9972 20.0387 15.0143C20.1915 15.4897 20.3116 15.975 20.3981 16.4669C20.5052 16.992 20.5511 17.5278 20.535 18.0635C20.5281 18.4869 20.4115 18.9013 20.1965 19.266C19.9446 19.7536 19.6104 20.163 18.6429 21.17C17.6855 22.1658 17.348 22.579 17.2271 22.9024C17.0486 23.5361 16.932 24.1857 16.8789 24.842C16.7559 26.0386 16.6386 26.8681 16.5502 27.1672C16.5056 27.3616 16.4198 27.544 16.2986 27.7022C16.1774 27.8604 16.0237 27.9907 15.8478 28.0842C15.6668 28.1834 15.4613 28.2288 15.2554 28.2151C15.0422 28.2343 14.8274 28.2061 14.6263 28.1325V28.1325Z" fill="white"/>
<path d="M18.292 26.6106C18.0156 26.4735 17.8158 26.1735 17.6059 25.5793C17.5321 25.3709 17.5159 25.283 17.5453 25.2536C17.6084 25.1904 17.679 25.2717 17.7667 25.5086C17.8768 25.8058 17.9954 26.0003 18.1029 26.0608C18.1316 26.0827 18.1667 26.0946 18.2028 26.0947C18.2389 26.0949 18.274 26.0833 18.3029 26.0616C18.3895 26.0204 18.4126 25.9835 18.4215 25.8734C18.4431 25.6153 18.5849 25.7497 18.6992 26.1362C18.7793 26.4081 18.774 26.4572 18.6502 26.5803C18.5231 26.7087 18.4933 26.7105 18.292 26.6106Z" fill="white"/>
<path d="M13.1132 10.0945C13.1147 10.2893 13.1926 10.4757 13.3301 10.6134C13.4676 10.7512 13.6538 10.8292 13.8483 10.8306C14.0233 10.8306 14.1926 10.7677 14.3253 10.6534L14.4212 10.5849L14.4063 10.8397C14.3874 11.1746 14.2619 11.4302 13.9511 11.7664C13.6152 12.1297 13.288 12.3651 12.2212 13.0107C10.7636 13.8927 10.2689 14.2398 9.74402 14.7475C9.09089 15.3637 8.6229 16.1505 8.39297 17.0191C8.11152 18.1504 8.20168 19.2378 8.67932 20.4903C8.81587 20.8484 8.81849 20.8686 8.83907 21.4775C8.89379 23.0954 9.29922 24.2092 10.1375 25.0434C10.4815 25.4249 10.9512 25.6695 11.4606 25.7324C11.5977 25.7486 11.7359 25.7532 11.8738 25.7461C13.0912 25.6432 13.6234 24.6338 13.8842 21.9348C13.9037 21.6809 13.938 21.4284 13.987 21.1785C14.0146 21.0996 14.255 20.8544 14.7263 20.4231C15.4679 19.7444 15.6162 19.5515 15.6164 19.2679C15.5813 18.8465 15.5213 18.4276 15.4367 18.0133C15.4236 17.9986 15.3387 18.0876 15.2495 18.2109C14.8647 18.6497 14.4457 19.0574 13.9966 19.43C13.5868 19.7899 13.5103 19.978 13.3713 20.9676C13.1291 22.6932 12.8217 23.6028 12.3056 24.12C12.0631 24.3549 11.7538 24.5088 11.4204 24.5605C11.0869 24.6123 10.7457 24.5594 10.4435 24.409C9.82373 24.0945 9.36538 23.1517 9.30919 22.0804L9.28746 21.6599L9.56924 21.9239C9.94494 22.2747 10.2494 22.4277 10.5756 22.4277C10.883 22.4277 10.984 22.3977 11.1439 22.2574C11.3786 22.051 11.4897 21.7202 11.4897 21.2244C11.4897 20.2341 10.959 19.0468 10.379 18.7427C10.2586 18.6826 10.1252 18.6537 9.99078 18.6587C9.85641 18.6637 9.72545 18.7024 9.60991 18.7713C9.35586 18.958 9.1672 19.2203 9.07086 19.5208C9.04578 19.6121 9.00571 19.6986 8.95227 19.7768C8.88481 19.8095 8.82159 19.3607 8.81996 18.8444C8.81194 18.5477 8.83719 18.251 8.89526 17.96C9.10631 16.9281 9.51386 16.1922 10.3193 15.3879C10.8643 14.8437 11.4267 14.415 12.6871 13.5837C13.6614 12.941 14.0777 12.5941 14.3085 12.2331C14.4102 12.0739 14.4311 12.0572 14.4408 12.1256C14.4756 12.3697 14.1814 13.1255 13.5051 14.5301C13.1226 15.2834 12.7869 16.0596 12.4997 16.8542C12.1671 17.7516 11.9334 18.6826 11.8025 19.6307C11.7143 20.5002 11.6941 21.3753 11.7421 22.2479C11.7867 22.9475 11.9412 24.0435 12.0035 24.1058C12.0284 24.1308 12.0796 24.1023 12.1632 24.0166L12.2875 23.8899L12.2222 23.4876C11.9821 21.9222 12.0758 20.3237 12.4971 18.7971C12.799 17.6484 13.1608 16.7328 14.0205 14.9499C14.7776 13.3796 14.9135 12.8483 14.8774 11.586C14.8475 10.5391 14.7088 9.92766 14.4302 9.61719C14.3673 9.53737 14.2872 9.47281 14.1959 9.42834C14.1046 9.38387 14.0044 9.36064 13.9029 9.36038C13.3862 9.36038 13.1132 9.69571 13.1132 10.0945ZM10.3793 19.9644C10.4498 19.9663 10.5189 19.9842 10.5813 20.0169C10.7462 20.1343 10.862 20.3084 10.9066 20.506C10.8882 20.6056 10.8514 20.7009 10.7981 20.787C10.735 20.9139 10.6291 21.0142 10.4992 21.0703C10.3726 21.133 10.2336 21.1665 10.0924 21.1683C9.95118 21.1701 9.81137 21.1401 9.68326 21.0806C9.4036 20.9498 9.39397 20.9259 9.51778 20.6635C9.72393 20.2274 10.0732 19.9561 10.3793 19.9644Z" fill="white"/>
<path d="M15.6133 23.2279C15.0977 22.7093 14.6717 22.1085 14.3527 21.4502L14.2134 21.167L14.3749 21.0023C14.4319 20.9355 14.5006 20.8796 14.5775 20.8374C14.6525 20.894 14.7152 20.9655 14.7616 21.0473C15.0966 21.4724 15.4721 21.8641 15.8826 22.2167C16.1048 22.3986 16.1299 22.4321 16.1079 22.516C16.0942 22.5679 16.0447 22.7975 15.9976 23.026C15.9715 23.1727 15.9368 23.3177 15.8936 23.4603C15.7896 23.3965 15.6952 23.3183 15.6133 23.2279V23.2279Z" fill="white"/>
<path d="M10.6731 17.5141C10.5408 17.3757 10.5047 17.1998 10.5443 16.8846C10.5666 16.7048 10.6229 16.5309 10.7104 16.3723C10.9513 15.9132 11.7099 15.2458 11.7099 15.4928C11.6041 15.6265 11.4895 15.7531 11.3669 15.8716C10.8577 16.3951 10.6909 16.7803 10.8723 17.0112C10.999 17.1727 11.2347 17.1257 11.2347 16.9398C11.2347 16.8364 11.3559 16.6856 11.4113 16.7199C11.4667 16.7543 11.4647 16.8763 11.4017 17.0863C11.2619 17.5537 10.909 17.7606 10.6731 17.5141Z" fill="white"/>
<path d="M15.7281 17.0073C15.6354 16.6728 15.6638 16.627 16.5612 15.6572C16.9304 15.2586 17.28 14.8686 17.3365 14.7902C17.448 14.6383 17.4531 14.6415 17.5093 14.9011C17.5366 14.9953 17.5272 15.0963 17.4828 15.1836C17.2562 15.4878 17.0107 15.7773 16.7478 16.0506C16.3763 16.4561 16.0148 16.867 15.9444 16.9635C15.9021 17.0298 15.8504 17.0896 15.791 17.1411C15.7778 17.1436 15.7491 17.0827 15.7281 17.0073Z" fill="white"/>
<path d="M13.63 11.3473C13.63 11.4929 13.5869 11.6352 13.5062 11.7563C13.4254 11.8773 13.3106 11.9717 13.1763 12.0274C13.042 12.0831 12.8942 12.0977 12.7516 12.0693C12.609 12.0409 12.478 11.9708 12.3752 11.8678C12.2724 11.7649 12.2024 11.6337 12.174 11.4909C12.1457 11.3481 12.1602 11.2001 12.2159 11.0656C12.2715 10.9311 12.3657 10.8162 12.4866 10.7353C12.6075 10.6544 12.7496 10.6112 12.895 10.6112C13.0899 10.6112 13.2769 10.6888 13.4148 10.8268C13.5526 10.9649 13.63 11.1521 13.63 11.3473V11.3473Z" fill="white"/>
<path d="M17.4606 19.3104L16.5181 18.8541L15.9912 19.9451L16.9337 20.4015L17.4606 19.3104Z" fill="white"/>
<path d="M20.5508 21.2899L19.6083 20.8335L19.0814 21.9245L20.0239 22.3809L20.5508 21.2899Z" fill="white"/>
<path d="M15.5612 23.9758L14.7508 23.3121L13.9753 24.2617L14.7857 24.9253L15.5612 23.9758Z" fill="white"/>
<path d="M15.3773 25.6282L14.5669 24.9646L13.7914 25.9141L14.6018 26.5778L15.3773 25.6282Z" fill="white"/>
</g>
<defs>
<clipPath id="clip0_2_25">
<rect y="0.954391" width="32.4324" height="32" rx="16" fill="white"/>
</clipPath>
</defs>
</svg>
