<svg xmlns="http://www.w3.org/2000/svg" viewBox="0 0 24 24" fill="currentColor">
    <defs>
        <clipPath id="a">
            <path d="M0 0h24v24H0z"/>
        </clipPath>
    </defs>
    <g>
        <path d="M11.13 19.64H6.87c-1.78 0-5.53-.02-5.53-.02v-16h21.33v9.07c.11.1.23.2.34.3.39.38.71.81 1 1.27V2.95a.72.72 0 0 0-.75-.67H.75c-.19-.01-.37.05-.51.18s-.23.31-.24.49v17.34a.72.72 0 0 0 .75.67h10.84c-.19-.42-.35-.86-.46-1.31z"/>
        <path d="M18 12.07c-1.17 0-2.32.35-3.3 1a5.926 5.926 0 0 0-2.53 6.09c.23 1.15.79 2.21 1.62 3.04a5.944 5.944 0 0 0 6.47 1.28 5.955 5.955 0 0 0 3.66-5.49c0-1.57-.63-3.08-1.74-4.2a5.941 5.941 0 0 0-4.2-1.74zm3.33 6.27c0 .09-.04.17-.1.24a.35.35 0 0 1-.24.1h-2.33v2.33c0 .09-.04.17-.1.24s-.15.1-.24.1h-.67c-.09 0-.17-.04-.24-.1s-.1-.15-.1-.24v-2.33h-2.33c-.09 0-.17-.04-.24-.1a.35.35 0 0 1-.1-.24v-.67c0-.09.04-.17.1-.24.06-.06.15-.1.24-.1h2.33V15c0-.09.04-.17.1-.24s.15-.1.24-.1h.67c.09 0 .17.04.24.1s.1.15.1.24v2.33h2.33c.09 0 .17.04.24.1.06.06.1.15.1.24v.67zM6.8 5.51c-.27-.33-.56-.56-.87-.7-.32-.14-.78-.21-1.4-.21H2.07v8.12h2.52c.54 0 .99-.08 1.33-.23s.64-.38.88-.68.44-.71.6-1.23c.16-.52.24-1.13.24-1.83 0-.78-.08-1.43-.23-1.95-.15-.52-.36-.95-.62-1.28zm-.65 4.57c-.08.35-.18.61-.31.78-.12.16-.28.29-.48.37-.19.08-.51.12-.94.12H3.41V5.98h.61c.54 0 .9.02 1.09.07.25.06.46.19.64.39s.3.47.39.82.12.82.12 1.42-.04 1.05-.12 1.4zm9.06 1.32V4.6h-2.02l-1.2 5.54-1.21-5.54H8.77v8.12h1.25V6.33l1.32 6.39h1.29l1.33-6.39v5.77s.08-.07.13-.1c.36-.24.74-.43 1.13-.6zm4.93-.27 1.92-6.53h-1.43L19 10.61 17.31 4.6h-1.46l1.83 6.23c.11 0 .22-.02.33-.02.73 0 1.44.11 2.12.33z"
        />
    </g>
</svg>
