<?xml version="1.0" ?><svg data-name="Layer 1" id="Layer_1" viewBox="0 0 512 512" xmlns="http://www.w3.org/2000/svg" fill="currentColor"><title/><path d="M437.333,64H74.666a53.393,53.393,0,0,0-53.333,53.333v256a53.394,53.394,0,0,0,53.333,53.334H192a10.667,10.667,0,0,0,0-21.334V352h10.666a10.667,10.667,0,1,0,0-21.333h-160V160H469.333v74.667a10.667,10.667,0,0,0,21.333,0V117.333A53.393,53.393,0,0,0,437.333,64ZM170.666,352v53.333H117.333V352ZM96,352v53.333H74.666a32.036,32.036,0,0,1-32-32V352ZM42.666,138.667V117.333a32.036,32.036,0,0,1,32-32H96v53.334Zm74.667,0V85.333h53.333v53.334Zm74.667,0V85.333h53.333v53.334Zm74.666,0V85.333H320v53.334Zm74.667,0V85.333h53.333v53.334Zm74.667,0V85.333h21.333a32.036,32.036,0,0,1,32,32v21.334Z"/><path d="M489.237,281.98a10.667,10.667,0,0,0-14.571-3.9l-98.3,56.755-53.518-30.9a44.9,44.9,0,1,0-10.611,18.507l42.8,24.709-42.852,24.74a45.05,45.05,0,1,0,10.667,18.475l53.518-30.9,98.3,56.755a10.666,10.666,0,1,0,10.667-18.474l-87.636-50.6,87.636-50.6A10.666,10.666,0,0,0,489.237,281.98ZM285.861,314.26a23.717,23.717,0,1,1,14.4-11.05A23.576,23.576,0,0,1,285.861,314.26Zm5.72,109.223a23.713,23.713,0,1,1,8.681-32.4A23.744,23.744,0,0,1,291.581,423.483Z"/></svg>